<?xml version="1.0" encoding="UTF-8"?>
<svg width="29px" height="29px" viewBox="0 0 29 29" version="1.1" xmlns="http://www.w3.org/2000/svg" xmlns:xlink="http://www.w3.org/1999/xlink">
    <title>taigaSplashDiscord</title>
    <g id="页面-1" stroke="none" stroke-width="1" fill="none" fill-rule="evenodd">
        <g id="taigaSplashDiscord" transform="translate(0.900000, 0.900000)" fill="#B026CF" fill-rule="nonzero">
            <path d="M16.9,12.9 C16,12.9 15.3,13.7 15.3,14.7 C15.3,15.7 16,16.5 16.9,16.5 C17.8,16.5 18.5,15.7 18.5,14.7 C18.5,13.7 17.8,12.9 16.9,12.9 Z" id="路径"></path>
            <path d="M14,0 C6.3,0 0,6.3 0,14 C0,21.7 6.3,28 14,28 C21.7,28 28,21.7 28,14 C28,6.3 21.7,0 14,0 Z M22.6,18.4 C21.1,19.5 19.6,20.2 18.2,20.6 C17.8,20.1 17.5,19.6 17.3,19.1 C17.8,18.9 18.3,18.7 18.8,18.4 C18.7,18.3 18.6,18.2 18.4,18.1 C15.6,19.4 12.4,19.4 9.5,18.1 C9.4,18.2 9.3,18.3 9.1,18.4 C9.6,18.7 10.1,18.9 10.6,19.1 C10.3,19.6 10,20.2 9.7,20.6 C8.3,20.2 6.8,19.5 5.3,18.4 C5,15.1 5.6,11.8 7.9,8.5 C9,8 10.2,7.6 11.5,7.4 C11.7,7.7 11.8,8 12,8.3 C13.3,8.1 14.7,8.1 16,8.3 C16.1,8 16.3,7.6 16.5,7.4 C17.8,7.6 19,8 20.1,8.5 C22,11.4 23,14.6 22.6,18.4 Z" id="形状"></path>
            <path d="M11.1,12.9 C10.2,12.9 9.5,13.7 9.5,14.7 C9.5,15.7 10.2,16.5 11.1,16.5 C12,16.5 12.7,15.7 12.7,14.7 C12.7,13.7 12,12.9 11.1,12.9 Z" id="路径"></path>
        </g>
    </g>
</svg>